<?xml version="1.0" standalone="no"?>
<!DOCTYPE svg PUBLIC "-//W3C//DTD SVG 20010904//EN"
 "http://www.w3.org/TR/2001/REC-SVG-20010904/DTD/svg10.dtd">
<svg version="1.0" xmlns="http://www.w3.org/2000/svg"
 width="2048.000000pt" height="2048.000000pt" viewBox="0 0 2048.000000 2048.000000"
 preserveAspectRatio="xMidYMid meet">

<g transform="translate(0.000000,2048.000000) scale(0.100000,-0.100000)"
fill="#000000" stroke="none">
<path d="M16095 15854 c-71 -30 -161 -68 -200 -83 -38 -16 -270 -113 -515
-216 -245 -103 -634 -265 -865 -362 -362 -151 -753 -315 -1105 -465 -197 -84
-629 -264 -845 -353 -77 -31 -375 -157 -690 -290 -82 -35 -238 -100 -345 -145
-107 -45 -258 -109 -335 -142 -77 -33 -221 -94 -320 -135 -99 -41 -205 -85
-235 -98 -30 -12 -118 -49 -195 -82 -190 -82 -468 -199 -655 -276 -85 -36
-247 -104 -360 -152 -113 -47 -241 -101 -285 -120 -44 -18 -168 -70 -275 -115
-259 -109 -571 -239 -593 -248 -20 -8 57 -45 498 -239 143 -63 366 -161 495
-218 129 -57 375 -165 545 -240 171 -75 314 -140 318 -145 5 -4 26 -92 48
-195 21 -103 44 -205 49 -225 6 -21 26 -113 45 -204 19 -92 64 -294 99 -449
35 -155 111 -515 168 -799 57 -285 105 -518 108 -518 6 0 46 36 155 139 144
136 415 388 540 502 27 25 113 104 190 175 206 190 454 406 499 434 25 15 34
25 25 28 -34 10 -199 82 -384 167 -110 51 -217 98 -239 106 -37 13 -39 13 -62
-16 -86 -105 -398 -568 -503 -745 -22 -37 -18 10 15 186 42 230 123 633 168
846 l33 157 49 44 c27 24 81 71 119 103 153 128 272 231 585 504 180 157 481
420 671 585 189 165 425 372 524 460 199 177 834 734 1015 890 63 54 173 151
245 214 71 64 145 130 164 146 20 17 58 51 86 76 27 25 178 157 335 294 157
136 295 257 308 268 12 11 22 17 22 13 0 -4 -44 -54 -97 -109 -53 -56 -147
-154 -208 -217 -243 -254 -327 -344 -1615 -1715 -603 -642 -921 -977 -1119
-1179 -102 -105 -185 -193 -184 -196 1 -4 -12 -20 -29 -36 -17 -16 -27 -22
-23 -14 8 13 6 13 -8 1 -9 -7 -14 -17 -11 -22 3 -5 -5 -13 -18 -18 -13 -6 -19
-10 -15 -10 12 -1 -19 -31 -32 -31 -6 0 -15 -9 -21 -19 -5 -11 -19 -23 -31
-26 -11 -4 -18 -9 -15 -13 3 -3 -4 -10 -17 -16 -12 -7 -22 -17 -22 -23 0 -6
-4 -15 -9 -20 -5 -5 -6 -3 -2 5 4 6 3 12 -2 12 -13 0 -43 -35 -36 -42 3 -3 -3
-5 -13 -5 -10 1 -17 -4 -15 -10 1 -7 -4 -13 -12 -13 -23 0 -31 -22 -12 -32 9
-5 16 -15 16 -22 0 -13 185 -102 289 -138 31 -11 94 -35 141 -53 47 -18 157
-61 245 -95 88 -34 293 -118 455 -187 373 -158 743 -305 932 -371 l146 -51 62
147 c34 81 117 260 185 397 67 138 139 288 158 335 20 47 59 137 87 200 82
183 502 1204 825 2005 62 154 142 350 178 435 36 85 97 234 135 330 39 96 93
231 122 300 29 69 98 240 155 380 57 140 131 323 165 405 184 443 290 709 288
716 -2 4 -61 -17 -133 -47z m-1466 -1103 c-13 -10 -197 -132 -409 -272 -212
-140 -609 -402 -882 -584 -274 -181 -584 -387 -690 -457 -106 -69 -391 -257
-633 -416 -427 -282 -552 -364 -1178 -776 -164 -108 -303 -196 -308 -196 -6 0
-63 23 -127 51 -293 129 -566 248 -785 342 -130 55 -236 105 -234 110 1 5 41
25 87 44 260 106 572 236 770 320 416 176 594 251 708 297 62 26 240 101 395
167 155 67 379 161 497 209 118 49 280 116 360 150 80 34 294 124 475 200 182
76 420 177 530 223 205 88 451 191 1055 444 190 80 352 149 360 154 27 16 33
9 9 -10z"/>
<path d="M9735 15819 c-923 -67 -1787 -329 -2552 -775 -774 -451 -1398 -1030
-1895 -1759 -240 -352 -467 -800 -623 -1232 -87 -239 -192 -637 -239 -903 -76
-430 -86 -876 -31 -1350 7 -63 12 -117 9 -119 -2 -2 -117 -39 -256 -83 -318
-99 -638 -202 -701 -226 l-48 -18 193 -126 c106 -69 285 -185 398 -258 113
-73 291 -190 397 -259 106 -69 295 -193 420 -274 125 -81 424 -276 663 -432
l435 -283 22 56 c12 32 53 145 92 252 38 107 81 227 96 265 14 39 53 144 85
235 32 91 109 302 170 470 61 168 140 384 175 480 34 96 115 315 178 485 127
340 186 505 183 505 -1 0 -22 -6 -47 -14 -39 -13 -339 -106 -772 -240 -82 -25
-155 -46 -162 -46 -22 0 -25 26 -25 245 0 377 50 642 201 1062 71 195 110 293
170 418 339 707 873 1312 1539 1741 462 298 1005 511 1569 615 449 82 937 84
1422 3 l155 -26 95 40 c52 22 182 77 289 122 107 45 312 132 455 192 143 60
314 132 380 160 66 28 181 76 255 108 74 31 224 95 333 141 108 46 197 86 197
90 0 7 -358 189 -455 231 -256 112 -366 154 -585 226 -417 137 -820 222 -1260
267 -182 19 -745 27 -925 14z m-3935 -1923 c0 -2 -8 -10 -17 -17 -16 -13 -17
-12 -4 4 13 16 21 21 21 13z m-570 -750 c0 -3 -4 -8 -10 -11 -5 -3 -10 -1 -10
4 0 6 5 11 10 11 6 0 10 -2 10 -4z m-383 -718 c-3 -8 -6 -5 -6 6 -1 11 2 17 5
13 3 -3 4 -12 1 -19z m-700 -2863 c0 -8 -4 -12 -9 -9 -4 3 -8 9 -8 15 0 5 4 9
8 9 5 0 9 -7 9 -15z m-460 -141 c-3 -3 -12 -4 -19 -1 -8 3 -5 6 6 6 11 1 17
-2 13 -5z m-37 -14 c0 -5 -5 -10 -11 -10 -5 0 -7 5 -4 10 3 6 8 10 11 10 2 0
4 -4 4 -10z m540 -506 c0 -8 -4 -14 -10 -14 -5 0 -10 9 -10 21 0 11 5 17 10
14 6 -3 10 -13 10 -21z m1270 -854 c0 -5 -2 -10 -4 -10 -3 0 -8 5 -11 10 -3 6
-1 10 4 10 6 0 11 -4 11 -10z"/>
<path d="M15352 12480 c-111 -281 -161 -403 -350 -850 -121 -288 -150 -352
-322 -715 -142 -299 -179 -380 -250 -550 -21 -49 -70 -166 -109 -258 -57 -137
-75 -190 -91 -285 -12 -64 -24 -132 -27 -150 l-6 -32 49 21 c27 12 54 25 59
29 17 13 922 478 944 485 17 5 21 0 26 -32 4 -21 18 -87 31 -148 24 -110 125
-594 265 -1270 l12 -60 13 40 c150 491 220 865 255 1360 13 185 7 594 -10 755
-57 511 -231 1136 -454 1630 -24 53 -25 54 -35 30z"/>
<path d="M14953 9600 c-18 -11 -308 -160 -645 -331 -337 -171 -649 -330 -693
-354 -74 -39 -189 -98 -960 -490 -159 -81 -291 -149 -293 -150 -6 -5 156 -90
542 -285 201 -101 366 -187 366 -191 0 -16 -337 -352 -449 -447 -363 -310
-756 -553 -1176 -727 -714 -295 -1553 -376 -2318 -224 -406 80 -741 196 -1111
383 -463 235 -856 527 -1207 901 -178 189 -257 287 -447 559 -40 56 -42 58
-51 35 -4 -13 -31 -89 -59 -169 -27 -80 -73 -206 -100 -280 -38 -102 -183
-498 -247 -678 -6 -16 27 -36 -645 405 -271 177 -450 293 -455 293 -9 0 177
-312 265 -445 684 -1024 1693 -1823 2857 -2263 456 -173 930 -280 1493 -339
207 -21 763 -24 950 -5 387 40 619 79 885 147 467 120 788 241 1200 450 386
196 653 369 1009 653 347 278 730 668 978 996 20 26 39 51 42 53 3 3 20 -4 38
-15 36 -22 904 -462 911 -462 2 0 -6 48 -19 108 -34 159 -280 1323 -363 1717
-163 777 -235 1112 -247 1158 -7 22 -12 21 -51 -3z m-9864 -1860 c0 -9 -6 -4
-14 10 -19 33 -19 49 0 24 8 -10 14 -26 14 -34z m66 -3 c11 -11 8 -14 -18 -14
-18 0 -26 2 -19 5 6 2 10 8 6 13 -8 14 16 11 31 -4z m55 -37 c0 -5 -7 -7 -15
-4 -8 4 -15 8 -15 10 0 2 7 4 15 4 8 0 15 -4 15 -10z m60 -40 c0 -5 -4 -10
-10 -10 -5 0 -10 5 -10 10 0 6 5 10 10 10 6 0 10 -4 10 -10z m-106 -36 c5 -14
4 -15 -9 -4 -17 14 -19 20 -6 20 5 0 12 -7 15 -16z"/>
</g>
</svg>
